<?xml version="1.0" encoding="UTF-8" standalone="no"?>
<!DOCTYPE svg PUBLIC "-//W3C//DTD SVG 1.1//EN"
 "http://www.w3.org/Graphics/SVG/1.1/DTD/svg11.dtd">
<!-- Generated by graphviz version 2.40.1 (20161225.0304)
 -->
<!-- Title: controllers_diagram Pages: 1 -->
<svg width="622pt" height="462pt"
 viewBox="0.00 0.00 622.00 462.00" xmlns="http://www.w3.org/2000/svg" xmlns:xlink="http://www.w3.org/1999/xlink">
<g id="graph0" class="graph" transform="scale(1 1) rotate(0) translate(4 458)">
<title>controllers_diagram</title>
<polygon fill="transparent" stroke="transparent" points="-4,4 -4,-458 618,-458 618,4 -4,4"/>
<!-- _diagram_info -->
<g id="node1" class="node">
<title>_diagram_info</title>
<text text-anchor="start" x="368" y="-189.6" font-family="Times,serif" font-size="13.00" fill="#000000">Controllers diagram</text>
<text text-anchor="start" x="368" y="-175.6" font-family="Times,serif" font-size="13.00" fill="#000000">Date: Mar 13 2020 &#45; 01:11</text>
<text text-anchor="start" x="368" y="-161.6" font-family="Times,serif" font-size="13.00" fill="#000000">Migration version: 20200311220225</text>
<text text-anchor="start" x="368" y="-147.6" font-family="Times,serif" font-size="13.00" fill="#000000">Generated by RailRoady 1.5.3</text>
<text text-anchor="start" x="368" y="-133.6" font-family="Times,serif" font-size="13.00" fill="#000000">http://railroady.prestonlee.com</text>
</g>
<!-- ApplicationController -->
<g id="node2" class="node">
<title>ApplicationController</title>
<path fill="none" stroke="#000000" d="M372,-.5C372,-.5 602,-.5 602,-.5 608,-.5 614,-6.5 614,-12.5 614,-12.5 614,-80.5 614,-80.5 614,-86.5 608,-92.5 602,-92.5 602,-92.5 372,-92.5 372,-92.5 366,-92.5 360,-86.5 360,-80.5 360,-80.5 360,-12.5 360,-12.5 360,-6.5 366,-.5 372,-.5"/>
<text text-anchor="middle" x="487" y="-77.3" font-family="Times,serif" font-size="14.00" fill="#000000">ApplicationController</text>
<polyline fill="none" stroke="#000000" points="360,-69.5 614,-69.5 "/>
<text text-anchor="start" x="368" y="-54.3" font-family="Times,serif" font-size="14.00" fill="#000000">not_found</text>
<polyline fill="none" stroke="#000000" points="360,-46.5 614,-46.5 "/>
<text text-anchor="start" x="368" y="-31.3" font-family="Times,serif" font-size="14.00" fill="#000000">configure_permitted_parameters</text>
<polyline fill="none" stroke="#000000" points="360,-23.5 614,-23.5 "/>
<text text-anchor="start" x="368" y="-8.3" font-family="Times,serif" font-size="14.00" fill="#000000">_layout</text>
</g>
<!-- ContactsController -->
<g id="node3" class="node">
<title>ContactsController</title>
<path fill="none" stroke="#000000" d="M372,-234.5C372,-234.5 503,-234.5 503,-234.5 509,-234.5 515,-240.5 515,-246.5 515,-246.5 515,-345.5 515,-345.5 515,-351.5 509,-357.5 503,-357.5 503,-357.5 372,-357.5 372,-357.5 366,-357.5 360,-351.5 360,-345.5 360,-345.5 360,-246.5 360,-246.5 360,-240.5 366,-234.5 372,-234.5"/>
<text text-anchor="middle" x="437.5" y="-342.3" font-family="Times,serif" font-size="14.00" fill="#000000">ContactsController</text>
<polyline fill="none" stroke="#000000" points="360,-334.5 515,-334.5 "/>
<text text-anchor="start" x="368" y="-319.3" font-family="Times,serif" font-size="14.00" fill="#000000">index</text>
<text text-anchor="start" x="368" y="-304.3" font-family="Times,serif" font-size="14.00" fill="#000000">send_mail</text>
<polyline fill="none" stroke="#000000" points="360,-296.5 515,-296.5 "/>
<polyline fill="none" stroke="#000000" points="360,-272.5 515,-272.5 "/>
<text text-anchor="start" x="368" y="-257.3" font-family="Times,serif" font-size="14.00" fill="#000000">_layout</text>
<text text-anchor="start" x="368" y="-242.3" font-family="Times,serif" font-size="14.00" fill="#000000">mail_params</text>
</g>
<!-- DiscussionsController -->
<g id="node4" class="node">
<title>DiscussionsController</title>
<path fill="none" stroke="#000000" d="M156,-.5C156,-.5 307,-.5 307,-.5 313,-.5 319,-6.5 319,-12.5 319,-12.5 319,-216.5 319,-216.5 319,-222.5 313,-228.5 307,-228.5 307,-228.5 156,-228.5 156,-228.5 150,-228.5 144,-222.5 144,-216.5 144,-216.5 144,-12.5 144,-12.5 144,-6.5 150,-.5 156,-.5"/>
<text text-anchor="middle" x="231.5" y="-213.3" font-family="Times,serif" font-size="14.00" fill="#000000">DiscussionsController</text>
<polyline fill="none" stroke="#000000" points="144,-205.5 319,-205.5 "/>
<text text-anchor="start" x="152" y="-190.3" font-family="Times,serif" font-size="14.00" fill="#000000">create</text>
<text text-anchor="start" x="152" y="-175.3" font-family="Times,serif" font-size="14.00" fill="#000000">destroy</text>
<text text-anchor="start" x="152" y="-160.3" font-family="Times,serif" font-size="14.00" fill="#000000">edit</text>
<text text-anchor="start" x="152" y="-145.3" font-family="Times,serif" font-size="14.00" fill="#000000">index</text>
<text text-anchor="start" x="152" y="-130.3" font-family="Times,serif" font-size="14.00" fill="#000000">new</text>
<text text-anchor="start" x="152" y="-115.3" font-family="Times,serif" font-size="14.00" fill="#000000">show</text>
<text text-anchor="start" x="152" y="-100.3" font-family="Times,serif" font-size="14.00" fill="#000000">subscribe</text>
<text text-anchor="start" x="152" y="-85.3" font-family="Times,serif" font-size="14.00" fill="#000000">update</text>
<polyline fill="none" stroke="#000000" points="144,-77.5 319,-77.5 "/>
<polyline fill="none" stroke="#000000" points="144,-53.5 319,-53.5 "/>
<text text-anchor="start" x="152" y="-38.3" font-family="Times,serif" font-size="14.00" fill="#000000">_layout</text>
<text text-anchor="start" x="152" y="-23.3" font-family="Times,serif" font-size="14.00" fill="#000000">discussion_params</text>
<text text-anchor="start" x="152" y="-8.3" font-family="Times,serif" font-size="14.00" fill="#000000">set_discussion</text>
</g>
<!-- GlobalChatController -->
<g id="node5" class="node">
<title>GlobalChatController</title>
<path fill="none" stroke="#000000" d="M174,-270.5C174,-270.5 320,-270.5 320,-270.5 326,-270.5 332,-276.5 332,-282.5 332,-282.5 332,-366.5 332,-366.5 332,-372.5 326,-378.5 320,-378.5 320,-378.5 174,-378.5 174,-378.5 168,-378.5 162,-372.5 162,-366.5 162,-366.5 162,-282.5 162,-282.5 162,-276.5 168,-270.5 174,-270.5"/>
<text text-anchor="middle" x="247" y="-363.3" font-family="Times,serif" font-size="14.00" fill="#000000">GlobalChatController</text>
<polyline fill="none" stroke="#000000" points="162,-355.5 332,-355.5 "/>
<text text-anchor="start" x="170" y="-340.3" font-family="Times,serif" font-size="14.00" fill="#000000">index</text>
<text text-anchor="start" x="170" y="-325.3" font-family="Times,serif" font-size="14.00" fill="#000000">subscribe</text>
<polyline fill="none" stroke="#000000" points="162,-317.5 332,-317.5 "/>
<polyline fill="none" stroke="#000000" points="162,-293.5 332,-293.5 "/>
<text text-anchor="start" x="170" y="-278.3" font-family="Times,serif" font-size="14.00" fill="#000000">_layout</text>
</g>
<!-- HomeController -->
<g id="node6" class="node">
<title>HomeController</title>
<path fill="none" stroke="#000000" d="M12,-360.5C12,-360.5 121,-360.5 121,-360.5 127,-360.5 133,-366.5 133,-372.5 133,-372.5 133,-441.5 133,-441.5 133,-447.5 127,-453.5 121,-453.5 121,-453.5 12,-453.5 12,-453.5 6,-453.5 0,-447.5 0,-441.5 0,-441.5 0,-372.5 0,-372.5 0,-366.5 6,-360.5 12,-360.5"/>
<text text-anchor="middle" x="66.5" y="-438.3" font-family="Times,serif" font-size="14.00" fill="#000000">HomeController</text>
<polyline fill="none" stroke="#000000" points="0,-430.5 133,-430.5 "/>
<text text-anchor="start" x="8" y="-415.3" font-family="Times,serif" font-size="14.00" fill="#000000">index</text>
<polyline fill="none" stroke="#000000" points="0,-407.5 133,-407.5 "/>
<polyline fill="none" stroke="#000000" points="0,-383.5 133,-383.5 "/>
<text text-anchor="start" x="8" y="-368.3" font-family="Times,serif" font-size="14.00" fill="#000000">_layout</text>
</g>
</g>
</svg>
