<?xml version="1.0" encoding="UTF-8" standalone="no"?>
<!DOCTYPE svg PUBLIC "-//W3C//DTD SVG 1.1//EN"
 "http://www.w3.org/Graphics/SVG/1.1/DTD/svg11.dtd">
<!-- Generated by graphviz version 2.40.1 (20161225.0304)
 -->
<!-- Title: models_diagram Pages: 1 -->
<svg width="860pt" height="232pt"
 viewBox="0.00 0.00 859.65 232.00" xmlns="http://www.w3.org/2000/svg" xmlns:xlink="http://www.w3.org/1999/xlink">
<g id="graph0" class="graph" transform="scale(1 1) rotate(0) translate(4 228)">
<title>models_diagram</title>
<polygon fill="transparent" stroke="transparent" points="-4,4 -4,-228 855.6453,-228 855.6453,4 -4,4"/>
<!-- _diagram_info -->
<g id="node1" class="node">
<title>_diagram_info</title>
<text text-anchor="start" x="8" y="-209.6" font-family="Times,serif" font-size="13.00" fill="#000000">Models diagram</text>
<text text-anchor="start" x="8" y="-195.6" font-family="Times,serif" font-size="13.00" fill="#000000">Date: Mar 13 2020 &#45; 01:11</text>
<text text-anchor="start" x="8" y="-181.6" font-family="Times,serif" font-size="13.00" fill="#000000">Migration version: 20200311220225</text>
<text text-anchor="start" x="8" y="-167.6" font-family="Times,serif" font-size="13.00" fill="#000000">Generated by RailRoady 1.5.3</text>
<text text-anchor="start" x="8" y="-153.6" font-family="Times,serif" font-size="13.00" fill="#000000">http://railroady.prestonlee.com</text>
</g>
<!-- ApplicationRecord -->
<g id="node2" class="node">
<title>ApplicationRecord</title>
<ellipse fill="none" stroke="#000000" cx="369" cy="-185" rx="96.6831" ry="18"/>
<text text-anchor="middle" x="369" y="-181.3" font-family="Times,serif" font-size="14.00" fill="#000000">ApplicationRecord</text>
</g>
<!-- Discussion -->
<g id="node3" class="node">
<title>Discussion</title>
<ellipse fill="none" stroke="#000000" cx="347" cy="-91" rx="61.1893" ry="18"/>
<text text-anchor="middle" x="347" y="-87.3" font-family="Times,serif" font-size="14.00" fill="#000000">Discussion</text>
</g>
<!-- Message -->
<g id="node4" class="node">
<title>Message</title>
<ellipse fill="none" stroke="#000000" cx="444" cy="-18" rx="51.9908" ry="18"/>
<text text-anchor="middle" x="444" y="-14.3" font-family="Times,serif" font-size="14.00" fill="#000000">Message</text>
</g>
<!-- Discussion&#45;&gt;Message -->
<g id="edge1" class="edge">
<title>Discussion&#45;&gt;Message</title>
<path fill="none" stroke="#3e8b71" d="M376.0372,-69.1472C388.0027,-60.1423 401.8629,-49.7114 413.9335,-40.6274"/>
<ellipse fill="none" stroke="#3e8b71" cx="372.6936" cy="-71.6636" rx="4" ry="4"/>
<polygon fill="#3e8b71" stroke="#3e8b71" points="413.9688,-40.6009 424.6648,-38.1832 417.9638,-37.5943 421.9589,-34.5877 421.9589,-34.5877 421.9589,-34.5877 417.9638,-37.5943 419.2529,-30.9921 413.9688,-40.6009 413.9688,-40.6009"/>
</g>
<!-- SentMail -->
<g id="node5" class="node">
<title>SentMail</title>
<ellipse fill="none" stroke="#000000" cx="799" cy="-91" rx="52.7911" ry="18"/>
<text text-anchor="middle" x="799" y="-87.3" font-family="Times,serif" font-size="14.00" fill="#000000">SentMail</text>
</g>
<!-- User -->
<g id="node6" class="node">
<title>User</title>
<ellipse fill="none" stroke="#000000" cx="517" cy="-185" rx="33.2948" ry="18"/>
<text text-anchor="middle" x="517" y="-181.3" font-family="Times,serif" font-size="14.00" fill="#000000">User</text>
</g>
<!-- User&#45;&gt;Discussion -->
<g id="edge3" class="edge">
<title>User&#45;&gt;Discussion</title>
<path fill="none" stroke="#c2a6ef" d="M496.1435,-162.8103C489.7557,-156.8255 482.4402,-150.7108 475,-146 456.8006,-134.4769 449.8409,-136.3868 430,-128 416.7863,-122.4145 402.488,-116.1289 389.5426,-110.3452"/>
<ellipse fill="none" stroke="#c2a6ef" cx="499.3252" cy="-165.9058" rx="4" ry="4"/>
<polygon fill="#c2a6ef" stroke="#c2a6ef" points="389.5143,-110.3325 382.2321,-102.1338 384.9523,-108.2861 380.3903,-106.2396 380.3903,-106.2396 380.3903,-106.2396 384.9523,-108.2861 378.5485,-110.3454 389.5143,-110.3325 389.5143,-110.3325"/>
</g>
<!-- User&#45;&gt;Message -->
<g id="edge4" class="edge">
<title>User&#45;&gt;Message</title>
<path fill="none" stroke="#afafd4" d="M494.9621,-162.9754C482.086,-148.7706 466.7035,-129.2243 458,-109 449.4432,-89.1165 446.0217,-64.8047 444.6969,-46.3137"/>
<ellipse fill="none" stroke="#afafd4" cx="497.9442" cy="-166.1807" rx="4" ry="4"/>
<polygon fill="#afafd4" stroke="#afafd4" points="444.6886,-46.1613 448.6293,-35.928 444.4124,-41.1689 444.1362,-36.1766 444.1362,-36.1766 444.1362,-36.1766 444.4124,-41.1689 439.6431,-36.4251 444.6886,-46.1613 444.6886,-46.1613"/>
<text text-anchor="middle" x="512.5" y="-87.3" font-family="Times,serif" font-size="14.00" fill="#000000">sent_messages</text>
</g>
<!-- User&#45;&gt;Message -->
<g id="edge5" class="edge">
<title>User&#45;&gt;Message</title>
<path fill="none" stroke="#17de41" d="M538.9697,-163.4906C560.0338,-140.1724 586.0332,-102.3601 567,-73 552.1722,-50.127 525.3571,-36.6812 500.5404,-28.8195"/>
<ellipse fill="none" stroke="#17de41" cx="536.2054" cy="-166.4536" rx="4" ry="4"/>
<polygon fill="#17de41" stroke="#17de41" points="500.3954,-28.7772 492.0571,-21.6552 495.5957,-27.3761 490.7961,-25.9749 490.7961,-25.9749 490.7961,-25.9749 495.5957,-27.3761 489.535,-30.2946 500.3954,-28.7772 500.3954,-28.7772"/>
<text text-anchor="middle" x="643.5" y="-87.3" font-family="Times,serif" font-size="14.00" fill="#000000">received_messages</text>
</g>
<!-- User&#45;&gt;SentMail -->
<g id="edge2" class="edge">
<title>User&#45;&gt;SentMail</title>
<path fill="none" stroke="#19abfb" d="M553.188,-172.9373C603.6325,-156.1225 695.1813,-125.6062 751.1945,-106.9352"/>
<ellipse fill="none" stroke="#19abfb" cx="549.1251" cy="-174.2916" rx="4" ry="4"/>
<polygon fill="#19abfb" stroke="#19abfb" points="751.3961,-106.868 762.306,-107.9748 756.1395,-105.2869 760.8829,-103.7057 760.8829,-103.7057 760.8829,-103.7057 756.1395,-105.2869 759.4599,-99.4366 751.3961,-106.868 751.3961,-106.868"/>
</g>
</g>
</svg>
