<?xml version="1.0" encoding="UTF-8" standalone="no"?>
<!DOCTYPE svg PUBLIC "-//W3C//DTD SVG 1.1//EN"
 "http://www.w3.org/Graphics/SVG/1.1/DTD/svg11.dtd">
<!-- Generated by graphviz version 2.40.1 (20161225.0304)
 -->
<!-- Title: models_diagram Pages: 1 -->
<svg width="1022pt" height="598pt"
 viewBox="0.00 0.00 1022.00 598.00" xmlns="http://www.w3.org/2000/svg" xmlns:xlink="http://www.w3.org/1999/xlink">
<g id="graph0" class="graph" transform="scale(1 1) rotate(0) translate(4 594)">
<title>models_diagram</title>
<polygon fill="transparent" stroke="transparent" points="-4,4 -4,-594 1018,-594 1018,4 -4,4"/>
<!-- _diagram_info -->
<g id="node1" class="node">
<title>_diagram_info</title>
<text text-anchor="start" x="8" y="-508.6" font-family="Times,serif" font-size="13.00" fill="#000000">Models diagram</text>
<text text-anchor="start" x="8" y="-494.6" font-family="Times,serif" font-size="13.00" fill="#000000">Date: Mar 13 2020 &#45; 01:11</text>
<text text-anchor="start" x="8" y="-480.6" font-family="Times,serif" font-size="13.00" fill="#000000">Migration version: 20200311220225</text>
<text text-anchor="start" x="8" y="-466.6" font-family="Times,serif" font-size="13.00" fill="#000000">Generated by RailRoady 1.5.3</text>
<text text-anchor="start" x="8" y="-452.6" font-family="Times,serif" font-size="13.00" fill="#000000">http://railroady.prestonlee.com</text>
</g>
<!-- ApplicationRecord -->
<g id="node2" class="node">
<title>ApplicationRecord</title>
<ellipse fill="none" stroke="#000000" cx="369" cy="-484" rx="96.6831" ry="18"/>
<text text-anchor="middle" x="369" y="-480.3" font-family="Times,serif" font-size="14.00" fill="#000000">ApplicationRecord</text>
</g>
<!-- Discussion -->
<g id="node3" class="node">
<title>Discussion</title>
<path fill="none" stroke="#000000" d="M348,-197C348,-197 494,-197 494,-197 500,-197 506,-203 506,-209 506,-209 506,-306 506,-306 506,-312 500,-318 494,-318 494,-318 348,-318 348,-318 342,-318 336,-312 336,-306 336,-306 336,-209 336,-209 336,-203 342,-197 348,-197"/>
<text text-anchor="middle" x="421" y="-302.8" font-family="Times,serif" font-size="14.00" fill="#000000">Discussion</text>
<polyline fill="none" stroke="#000000" points="336,-295 506,-295 "/>
<text text-anchor="start" x="344" y="-279.8" font-family="Times,serif" font-size="14.00" fill="#000000">id :integer</text>
<text text-anchor="start" x="344" y="-264.8" font-family="Times,serif" font-size="14.00" fill="#000000">topic :text</text>
<text text-anchor="start" x="344" y="-249.8" font-family="Times,serif" font-size="14.00" fill="#000000">image :varchar</text>
<text text-anchor="start" x="344" y="-234.8" font-family="Times,serif" font-size="14.00" fill="#000000">created_at :datetime</text>
<text text-anchor="start" x="344" y="-219.8" font-family="Times,serif" font-size="14.00" fill="#000000">updated_at :datetime</text>
<text text-anchor="start" x="344" y="-204.8" font-family="Times,serif" font-size="14.00" fill="#000000">owner_id :integer</text>
</g>
<!-- Message -->
<g id="node4" class="node">
<title>Message</title>
<path fill="none" stroke="#000000" d="M467.5,-.5C467.5,-.5 616.5,-.5 616.5,-.5 622.5,-.5 628.5,-6.5 628.5,-12.5 628.5,-12.5 628.5,-124.5 628.5,-124.5 628.5,-130.5 622.5,-136.5 616.5,-136.5 616.5,-136.5 467.5,-136.5 467.5,-136.5 461.5,-136.5 455.5,-130.5 455.5,-124.5 455.5,-124.5 455.5,-12.5 455.5,-12.5 455.5,-6.5 461.5,-.5 467.5,-.5"/>
<text text-anchor="middle" x="542" y="-121.3" font-family="Times,serif" font-size="14.00" fill="#000000">Message</text>
<polyline fill="none" stroke="#000000" points="455.5,-113.5 628.5,-113.5 "/>
<text text-anchor="start" x="463.5" y="-98.3" font-family="Times,serif" font-size="14.00" fill="#000000">id :integer</text>
<text text-anchor="start" x="463.5" y="-83.3" font-family="Times,serif" font-size="14.00" fill="#000000">content :text</text>
<text text-anchor="start" x="463.5" y="-68.3" font-family="Times,serif" font-size="14.00" fill="#000000">created_at :datetime</text>
<text text-anchor="start" x="463.5" y="-53.3" font-family="Times,serif" font-size="14.00" fill="#000000">updated_at :datetime</text>
<text text-anchor="start" x="463.5" y="-38.3" font-family="Times,serif" font-size="14.00" fill="#000000">sender_id :integer</text>
<text text-anchor="start" x="463.5" y="-23.3" font-family="Times,serif" font-size="14.00" fill="#000000">recipient_id :integer</text>
<text text-anchor="start" x="463.5" y="-8.3" font-family="Times,serif" font-size="14.00" fill="#000000">discussion_id :integer</text>
</g>
<!-- Discussion&#45;&gt;Message -->
<g id="edge1" class="edge">
<title>Discussion&#45;&gt;Message</title>
<path fill="none" stroke="#c7d7c6" d="M464.1631,-190.0799C473.4575,-175.5622 483.3482,-160.1131 492.8513,-145.2694"/>
<ellipse fill="none" stroke="#c7d7c6" cx="461.9412" cy="-193.5506" rx="4" ry="4"/>
<polygon fill="#c7d7c6" stroke="#c7d7c6" points="493.0025,-145.0332 502.1842,-139.0376 495.6984,-140.8222 498.3944,-136.6113 498.3944,-136.6113 498.3944,-136.6113 495.6984,-140.8222 494.6045,-134.1849 493.0025,-145.0332 493.0025,-145.0332"/>
</g>
<!-- SentMail -->
<g id="node5" class="node">
<title>SentMail</title>
<path fill="none" stroke="#000000" d="M856,-174.5C856,-174.5 1002,-174.5 1002,-174.5 1008,-174.5 1014,-180.5 1014,-186.5 1014,-186.5 1014,-328.5 1014,-328.5 1014,-334.5 1008,-340.5 1002,-340.5 1002,-340.5 856,-340.5 856,-340.5 850,-340.5 844,-334.5 844,-328.5 844,-328.5 844,-186.5 844,-186.5 844,-180.5 850,-174.5 856,-174.5"/>
<text text-anchor="middle" x="929" y="-325.3" font-family="Times,serif" font-size="14.00" fill="#000000">SentMail</text>
<polyline fill="none" stroke="#000000" points="844,-317.5 1014,-317.5 "/>
<text text-anchor="start" x="852" y="-302.3" font-family="Times,serif" font-size="14.00" fill="#000000">id :integer</text>
<text text-anchor="start" x="852" y="-287.3" font-family="Times,serif" font-size="14.00" fill="#000000">name :varchar</text>
<text text-anchor="start" x="852" y="-272.3" font-family="Times,serif" font-size="14.00" fill="#000000">email :varchar</text>
<text text-anchor="start" x="852" y="-257.3" font-family="Times,serif" font-size="14.00" fill="#000000">telephone :varchar</text>
<text text-anchor="start" x="852" y="-242.3" font-family="Times,serif" font-size="14.00" fill="#000000">title :varchar</text>
<text text-anchor="start" x="852" y="-227.3" font-family="Times,serif" font-size="14.00" fill="#000000">message :varchar</text>
<text text-anchor="start" x="852" y="-212.3" font-family="Times,serif" font-size="14.00" fill="#000000">user_id :integer</text>
<text text-anchor="start" x="852" y="-197.3" font-family="Times,serif" font-size="14.00" fill="#000000">created_at :datetime</text>
<text text-anchor="start" x="852" y="-182.3" font-family="Times,serif" font-size="14.00" fill="#000000">updated_at :datetime</text>
</g>
<!-- User -->
<g id="node6" class="node">
<title>User</title>
<path fill="none" stroke="#000000" d="M496,-378.5C496,-378.5 734,-378.5 734,-378.5 740,-378.5 746,-384.5 746,-390.5 746,-390.5 746,-577.5 746,-577.5 746,-583.5 740,-589.5 734,-589.5 734,-589.5 496,-589.5 496,-589.5 490,-589.5 484,-583.5 484,-577.5 484,-577.5 484,-390.5 484,-390.5 484,-384.5 490,-378.5 496,-378.5"/>
<text text-anchor="middle" x="615" y="-574.3" font-family="Times,serif" font-size="14.00" fill="#000000">User</text>
<polyline fill="none" stroke="#000000" points="484,-566.5 746,-566.5 "/>
<text text-anchor="start" x="492" y="-551.3" font-family="Times,serif" font-size="14.00" fill="#000000">id :integer</text>
<text text-anchor="start" x="492" y="-536.3" font-family="Times,serif" font-size="14.00" fill="#000000">email :varchar</text>
<text text-anchor="start" x="492" y="-521.3" font-family="Times,serif" font-size="14.00" fill="#000000">encrypted_password :varchar</text>
<text text-anchor="start" x="492" y="-506.3" font-family="Times,serif" font-size="14.00" fill="#000000">reset_password_token :varchar</text>
<text text-anchor="start" x="492" y="-491.3" font-family="Times,serif" font-size="14.00" fill="#000000">reset_password_sent_at :datetime</text>
<text text-anchor="start" x="492" y="-476.3" font-family="Times,serif" font-size="14.00" fill="#000000">remember_created_at :datetime</text>
<text text-anchor="start" x="492" y="-461.3" font-family="Times,serif" font-size="14.00" fill="#000000">created_at :datetime</text>
<text text-anchor="start" x="492" y="-446.3" font-family="Times,serif" font-size="14.00" fill="#000000">updated_at :datetime</text>
<text text-anchor="start" x="492" y="-431.3" font-family="Times,serif" font-size="14.00" fill="#000000">name :varchar</text>
<text text-anchor="start" x="492" y="-416.3" font-family="Times,serif" font-size="14.00" fill="#000000">date_of_birth :datetime</text>
<text text-anchor="start" x="492" y="-401.3" font-family="Times,serif" font-size="14.00" fill="#000000">is_female :boolean</text>
<text text-anchor="start" x="492" y="-386.3" font-family="Times,serif" font-size="14.00" fill="#000000">image :varchar</text>
</g>
<!-- User&#45;&gt;Discussion -->
<g id="edge3" class="edge">
<title>User&#45;&gt;Discussion</title>
<path fill="none" stroke="#834434" d="M519.1377,-372.0783C505.7075,-356.3982 492.2482,-340.6841 479.7898,-326.1386"/>
<ellipse fill="none" stroke="#834434" cx="521.9297" cy="-375.338" rx="4" ry="4"/>
<polygon fill="#834434" stroke="#834434" points="479.4832,-325.7806 476.3957,-315.2583 476.2306,-321.9831 472.978,-318.1856 472.978,-318.1856 472.978,-318.1856 476.2306,-321.9831 469.5603,-321.113 479.4832,-325.7806 479.4832,-325.7806"/>
</g>
<!-- User&#45;&gt;Message -->
<g id="edge4" class="edge">
<title>User&#45;&gt;Message</title>
<path fill="none" stroke="#5c2884" d="M564.1523,-370.4505C560.9775,-360.6198 558.1864,-350.717 556,-341 541.5114,-276.6082 538.6468,-201.5901 539.045,-146.5858"/>
<ellipse fill="none" stroke="#5c2884" cx="565.5102" cy="-374.5198" rx="4" ry="4"/>
<polygon fill="#5c2884" stroke="#5c2884" points="539.0452,-146.5547 543.655,-136.6048 539.1003,-141.555 539.1553,-136.5553 539.1553,-136.5553 539.1553,-136.5553 539.1003,-141.555 534.6555,-136.5058 539.0452,-146.5547 539.0452,-146.5547"/>
<text text-anchor="middle" x="610.5" y="-253.8" font-family="Times,serif" font-size="14.00" fill="#000000">sent_messages</text>
</g>
<!-- User&#45;&gt;Message -->
<g id="edge5" class="edge">
<title>User&#45;&gt;Message</title>
<path fill="none" stroke="#7f6dc4" d="M663.7161,-370.6497C682.3966,-310.0085 693.2246,-235.3935 665,-174 658.0906,-158.9707 647.8666,-145.28 636.2152,-133.1057"/>
<ellipse fill="none" stroke="#7f6dc4" cx="662.4855" cy="-374.5381" rx="4" ry="4"/>
<polygon fill="#7f6dc4" stroke="#7f6dc4" points="635.8829,-132.7752 631.9664,-122.5325 632.338,-129.2491 628.793,-125.723 628.793,-125.723 628.793,-125.723 632.338,-129.2491 625.6195,-128.9135 635.8829,-132.7752 635.8829,-132.7752"/>
<text text-anchor="middle" x="752.5" y="-253.8" font-family="Times,serif" font-size="14.00" fill="#000000">received_messages</text>
</g>
<!-- User&#45;&gt;SentMail -->
<g id="edge2" class="edge">
<title>User&#45;&gt;SentMail</title>
<path fill="none" stroke="#2aa7ce" d="M753.1832,-395.4579C779.0752,-377.9253 805.6439,-359.2784 830,-341 831.863,-339.6019 833.7373,-338.1802 835.619,-336.7391"/>
<ellipse fill="none" stroke="#2aa7ce" cx="749.5757" cy="-397.8927" rx="4" ry="4"/>
<polygon fill="#2aa7ce" stroke="#2aa7ce" points="836.0042,-336.4402 846.6633,-333.8645 839.9543,-333.3748 843.9044,-330.3094 843.9044,-330.3094 843.9044,-330.3094 839.9543,-333.3748 841.1456,-326.7543 836.0042,-336.4402 836.0042,-336.4402"/>
</g>
</g>
</svg>
